<svg version="1.1" id="Layer_1" xmlns="http://www.w3.org/2000/svg" xmlns:xlink="http://www.w3.org/1999/xlink" x="0px" y="0px"
	 width="100%" viewBox="0 0 1000 1000" enable-background="new 0 0 1000 1000" xml:space="preserve">
<path fill="#979797" opacity="1.000000" stroke="none" 
	d="
M555.000000,1001.000000 
	C371.500000,1001.000000 188.499985,1000.986633 5.500055,1001.093689 
	C1.750715,1001.095886 0.905755,1000.249084 0.906896,996.500000 
	C1.007416,666.166687 1.007416,335.833344 0.906896,5.500028 
	C0.905755,1.750898 1.750897,0.905753 5.500028,0.906894 
	C335.833344,1.007430 666.166687,1.007430 996.500000,0.906894 
	C1000.249084,0.905753 1001.094238,1.750897 1001.093140,5.500028 
	C1000.992615,335.833344 1000.992615,666.166687 1001.093140,996.500000 
	C1001.094299,1000.249084 1000.249390,1001.096863 996.499939,1001.094055 
	C849.500000,1000.983398 702.500000,1001.000000 555.000000,1001.000000 
z"/>
<path fill="#FEFEFE" opacity="1.000000" stroke="none" 
	d="
M124.301727,566.999878 
	C124.301735,490.001465 124.300659,413.503021 124.302940,337.004608 
	C124.303139,330.280243 124.313324,330.270660 131.178070,330.270325 
	C186.343613,330.267609 241.509140,330.267334 296.674683,330.270813 
	C303.206726,330.271210 303.222839,330.283752 303.215881,336.780334 
	C303.199310,352.279968 303.119720,367.779724 303.153442,383.279236 
	C303.182678,396.726868 306.236145,400.923309 319.039398,405.138977 
	C374.509521,423.403442 430.010315,441.575043 485.449951,459.931335 
	C497.628296,463.963623 509.548431,463.943848 521.678467,459.907654 
	C563.360474,446.038269 605.084534,432.295441 646.787354,418.488617 
	C649.924988,417.449829 653.021484,416.286591 657.055115,414.855499 
	C657.055115,417.281067 657.055115,419.168823 657.055115,421.056549 
	C657.055603,447.389343 657.135681,473.722595 656.970764,500.054352 
	C656.945984,504.004669 658.085571,505.091736 662.012024,505.079041 
	C703.344055,504.945496 744.677002,504.929840 786.008850,505.095123 
	C790.350769,505.112488 791.174561,503.655243 791.165894,499.674164 
	C791.046936,445.342224 791.085083,391.009918 791.087708,336.677704 
	C791.088013,330.280548 791.096802,330.271393 797.683350,330.270386 
	C823.349487,330.266479 849.016541,330.379974 874.680908,330.167236 
	C879.339111,330.128601 880.940491,331.185638 880.936462,336.160797 
	C880.809082,494.490723 880.808105,652.820801 880.945557,811.150757 
	C880.949890,816.143860 879.401245,817.102844 874.741821,817.100769 
	C626.580322,816.989685 378.418762,816.988464 130.257248,817.106812 
	C125.410828,817.109070 124.188225,815.775146 124.196838,810.993713 
	C124.342979,729.829285 124.301552,648.664612 124.301727,566.999878 
z"/>
<path fill="#FDFDFD" opacity="1.000000" stroke="none" 
	d="
M735.069702,196.452499 
	C736.164490,196.642197 736.791565,196.666245 737.415649,196.358704 
	C743.156738,197.041718 748.948364,196.392426 754.715515,196.467621 
	C765.466614,196.607803 776.220337,196.444977 787.434631,196.694992 
	C789.511597,198.055893 789.934265,199.762604 790.021240,201.668808 
	C790.552673,213.316589 791.029663,224.968048 791.721130,236.606598 
	C791.911560,239.811203 790.329346,240.115768 787.829529,240.102676 
	C776.498474,240.043365 765.160950,240.291870 753.838379,239.977356 
	C749.237549,239.849548 747.991028,241.231705 748.000427,245.823151 
	C748.142883,315.310944 748.100464,384.799133 748.099182,454.287201 
	C748.099060,460.996338 748.092773,460.999878 741.407837,461.001617 
	C730.409729,461.004486 719.403625,460.758148 708.417297,461.118256 
	C703.805176,461.269409 702.968506,459.664459 702.976013,455.444275 
	C703.098328,386.622955 703.071106,317.801361 703.051758,248.979843 
	C703.049561,241.223053 703.773193,242.128174 696.019775,242.092346 
	C685.688477,242.044601 675.346375,242.353683 665.029602,241.963379 
	C660.009521,241.773468 658.528381,243.144852 658.579834,248.293365 
	C658.901672,280.451996 658.880493,312.614166 658.948669,344.775238 
	C658.990295,364.435944 656.032593,368.529785 637.268677,374.684814 
	C598.851929,387.286530 560.373047,399.701660 522.030334,412.524292 
	C509.144592,416.833588 496.684570,416.682190 483.892639,412.438904 
	C444.889648,399.501099 405.813080,386.785248 366.770905,373.965485 
	C349.935059,368.437286 347.086823,364.536346 347.084625,346.931732 
	C347.082520,329.934692 347.144501,312.937622 347.180603,295.940582 
	C347.216003,279.276825 347.147186,262.611633 347.369720,245.950363 
	C347.422577,241.996078 346.170166,240.909241 342.259735,240.922134 
	C302.100403,241.054443 261.940063,240.919846 221.781204,241.111984 
	C217.000626,241.134857 215.481842,239.956482 215.646042,235.060562 
	C216.014511,224.074829 215.982346,213.061615 215.655807,202.073196 
	C215.516678,197.391541 216.651520,195.868179 221.642288,195.880371 
	C293.128906,196.055130 364.616089,196.003845 436.571442,195.951981 
	C437.651550,195.604065 438.296539,195.496490 438.973816,195.501221 
	C440.139130,195.509384 441.304657,195.502167 442.470093,195.499817 
	C538.190430,195.306366 633.908508,196.377411 729.629150,196.006866 
	C731.289551,196.000427 732.962158,195.882294 735.069702,196.452499 
z"/>
<path fill="#878787" opacity="1.000000" stroke="none" 
	d="
M735.169434,196.323898 
	C733.889038,196.745361 732.240295,196.988556 730.592346,196.983215 
	C633.050537,196.667831 535.508789,196.331894 437.503418,195.947464 
	C439.008453,194.631271 441.225677,194.994766 443.362946,194.994431 
	C538.248718,194.979736 633.134521,194.978989 728.020325,194.997757 
	C730.314819,194.998215 732.713867,194.562256 735.169434,196.323898 
z"/>
<path fill="#5D5D5D" opacity="1.000000" stroke="none" 
	d="
M787.550232,196.635742 
	C771.266785,196.814331 754.637146,196.780594 737.710083,196.386993 
	C752.198425,196.017075 766.984131,195.992294 781.769897,196.015976 
	C783.581421,196.018875 785.392639,196.281281 787.550232,196.635742 
z"/>
<path fill="#A1A1A1" opacity="1.000000" stroke="none" 
	d="
M520.400818,640.867310 
	C523.237305,640.073730 524.897339,640.414368 524.587463,643.772705 
	C523.517029,647.711609 523.961182,651.368530 524.048645,654.971741 
	C524.285339,664.712769 523.412903,674.427856 523.762451,684.570496 
	C522.322937,686.661682 520.202515,686.008606 518.292358,686.009399 
	C433.754974,686.045654 349.217529,686.005066 264.680359,686.137146 
	C260.117737,686.144287 258.707153,684.936829 258.854828,680.330078 
	C259.190552,669.856995 258.964966,659.365967 259.034241,648.414246 
	C259.881866,646.560974 259.296143,645.031128 259.738159,643.265625 
	C259.914886,642.939941 259.794830,642.907898 259.809875,642.847595 
	C264.352325,641.517456 269.012695,641.524414 273.642090,641.522583 
	C353.590942,641.491272 433.539795,641.501892 513.488647,641.490295 
	C515.641296,641.489990 517.827087,641.770752 520.400818,640.867310 
z"/>
<path fill="#999999" opacity="1.000000" stroke="none" 
	d="
M261.320862,595.153320 
	C259.258118,592.946716 260.064117,590.373169 260.041229,587.952087 
	C259.940521,577.298340 260.149475,566.639648 259.915619,555.990051 
	C259.831116,552.141846 260.845673,550.833618 264.888855,550.905151 
	C278.868866,551.152466 292.855896,551.001526 306.840271,550.999939 
	C378.260193,550.991821 449.680115,550.983093 521.567017,551.038879 
	C522.207031,551.251709 522.380066,551.400269 522.816528,551.767212 
	C523.079834,551.985535 523.007141,551.857178 523.071167,551.820618 
	C524.238098,553.969727 523.963379,556.329224 523.999207,558.648865 
	C524.171204,569.795227 523.648804,580.947510 524.492432,592.512390 
	C525.161316,594.724487 524.356384,595.607117 522.280518,595.768738 
	C520.406067,594.797058 518.706970,595.010681 517.057739,595.010559 
	C432.473724,595.006775 347.889740,594.980347 263.305725,595.015503 
	C262.805664,595.015747 262.307770,595.057556 261.320862,595.153320 
z"/>
<path fill="#8F8F8F" opacity="1.000000" stroke="none" 
	d="
M682.214966,665.142883 
	C687.586670,655.759277 688.997681,648.810730 680.316528,639.082336 
	C664.092102,620.900940 664.100037,594.329041 676.916077,573.808350 
	C689.859863,553.083130 713.915283,542.724060 738.630493,547.232117 
	C761.674011,551.435303 780.698547,570.251831 784.958618,593.442322 
	C788.465027,612.530090 783.676880,629.463806 770.610352,643.848083 
	C768.463257,646.211853 768.134277,647.942261 769.460754,650.800110 
	C773.807007,660.164001 777.768433,669.706055 782.060608,679.096069 
	C783.300659,681.808838 783.016052,683.220886 780.100708,684.396912 
	C773.153015,687.199768 766.260559,690.158081 759.464783,693.310059 
	C756.620605,694.629150 755.295715,693.907471 754.145935,691.201660 
	C750.499390,682.620605 746.549683,674.165833 743.027161,665.535706 
	C741.683105,662.242920 739.884094,661.348022 736.545410,662.128479 
	C731.306702,663.353027 725.903137,663.524475 720.651611,662.570801 
	C717.182800,661.940979 715.928772,663.337769 714.758362,666.130310 
	C711.283875,674.420349 707.438782,682.558716 704.110291,690.904602 
	C702.755798,694.300720 701.300598,694.594971 698.207153,693.149536 
	C691.724121,690.120483 685.126099,687.311768 678.455505,684.720947 
	C675.112122,683.422424 674.691833,681.793701 676.208923,678.740906 
	C678.355835,674.420837 680.137146,669.919067 682.214966,665.142883 
z"/>
<path fill="#9B9B9B" opacity="1.000000" stroke="none" 
	d="
M390.278107,504.574219 
	C347.741516,506.052399 305.470215,505.790192 263.202301,505.993011 
	C260.301941,506.006927 258.988617,505.171539 259.020142,502.035004 
	C259.140503,490.053497 259.100861,478.069916 259.042023,466.087463 
	C259.029602,463.555511 259.540436,462.006805 262.580200,462.016785 
	C304.679718,462.155090 346.779449,462.223755 388.879150,462.315674 
	C389.038513,462.316010 389.197723,462.406342 389.680542,462.719666 
	C390.427765,463.706177 390.859619,464.452759 390.861664,465.300079 
	C390.892761,478.256104 391.474701,491.216888 390.278107,504.574219 
z"/>
<path fill="#838383" opacity="1.000000" stroke="none" 
	d="
M261.190247,595.450317 
	C262.658905,593.615417 264.899414,593.974976 267.032898,593.975037 
	C349.960754,593.977905 432.888611,593.991943 515.816467,594.038391 
	C517.743042,594.039490 519.859314,593.441772 521.718933,595.408569 
	C519.769409,595.756531 517.605713,595.845703 515.441956,595.845886 
	C432.973083,595.852966 350.504242,595.853210 268.035370,595.844727 
	C265.872864,595.844482 263.710388,595.737305 261.190247,595.450317 
z"/>
<path fill="#8F8F8F" opacity="1.000000" stroke="none" 
	d="
M520.480225,640.652832 
	C518.811462,642.857117 516.157043,641.978333 513.765076,641.979797 
	C435.722565,642.027954 357.680023,642.064941 279.637695,641.939514 
	C273.295502,641.929321 267.066589,643.195862 260.282501,642.835266 
	C261.563599,639.474976 264.730652,640.578613 267.348328,640.575439 
	C321.125885,640.510254 374.903534,640.522888 428.681183,640.530212 
	C459.149048,640.534363 489.616913,640.556885 520.480225,640.652832 
z"/>
<path fill="#8F8F8F" opacity="1.000000" stroke="none" 
	d="
M390.373383,504.887573 
	C389.995941,491.296722 389.989258,477.610291 389.993347,463.454254 
	C391.274139,463.481659 391.666199,464.566925 391.658020,465.762115 
	C391.568848,478.776855 391.903656,491.802246 390.373383,504.887573 
z"/>
<path fill="#838383" opacity="1.000000" stroke="none" 
	d="
M524.751831,592.473145 
	C522.708313,591.809998 523.024597,589.860840 523.023315,588.072937 
	C523.014954,576.301514 523.038452,564.530090 523.093384,552.271362 
	C525.292847,552.826416 524.803955,554.831055 524.807434,556.591125 
	C524.830811,568.397888 524.810486,580.204651 524.751831,592.473145 
z"/>
<path fill="#878787" opacity="1.000000" stroke="none" 
	d="
M524.127136,684.546387 
	C522.944580,683.715881 522.979065,682.204102 522.980347,680.709778 
	C522.989685,669.921448 523.000916,659.133118 523.031616,648.344788 
	C523.035339,647.037842 522.856384,645.656738 524.211304,644.367432 
	C524.415344,657.460632 524.352234,670.787231 524.127136,684.546387 
z"/>
<path fill="#8F8F8F" opacity="1.000000" stroke="none" 
	d="
M259.580200,643.131592 
	C259.770966,644.401001 259.627075,645.862061 259.292053,647.634705 
	C259.149109,646.405273 259.197327,644.864258 259.580200,643.131592 
z"/>
<path fill="#8F8F8F" opacity="1.000000" stroke="none" 
	d="
M523.043701,551.717957 
	C522.840271,551.798218 522.601990,551.609314 522.199463,551.261047 
	C522.358582,551.218933 522.683105,551.334656 523.043701,551.717957 
z"/>
<path fill="#FDFDFD" opacity="1.000000" stroke="none" 
	d="
M748.963745,590.163696 
	C754.676636,599.638611 754.817322,608.902161 748.791870,617.731140 
	C742.875061,626.401062 734.183838,629.775513 723.958618,627.993835 
	C714.112122,626.278076 707.540649,620.255310 704.585083,610.632385 
	C701.226379,599.696411 706.470642,587.589966 716.728455,582.207458 
	C727.837891,576.378113 740.246643,579.338196 748.963745,590.163696 
z"/>
</svg>