<svg version="1.1" id="Layer_1" xmlns="http://www.w3.org/2000/svg" xmlns:xlink="http://www.w3.org/1999/xlink" x="0px" y="0px"
	 width="100%" viewBox="0 0 1000 1000" enable-background="new 0 0 1000 1000" xml:space="preserve">
<path fill="#1A2CA5" opacity="1.000000" stroke="none" 
	d="
M554.000000,1001.000000 
	C369.333344,1001.000000 185.166672,1001.000000 1.000000,1001.000000 
	C1.000000,667.666687 1.000000,334.333344 1.000000,1.000000 
	C334.333344,1.000000 667.666687,1.000000 1001.000000,1.000000 
	C1001.000000,334.333344 1001.000000,667.666687 1001.000000,1001.000000 
	C852.166687,1001.000000 703.333313,1001.000000 554.000000,1001.000000 
M737.379761,195.912506 
	C735.085938,195.615662 732.792175,195.060181 730.498230,195.059204 
	C634.300598,195.017838 538.102966,195.021179 441.905334,195.063034 
	C439.966980,195.063889 438.028778,195.586411 435.149384,195.992722 
	C362.058289,195.992722 288.967163,195.992722 215.836487,195.992722 
	C215.836487,211.241898 215.836487,225.861298 215.836487,241.117920 
	C259.710052,241.117920 303.399658,241.117920 347.121338,241.117920 
	C347.121338,264.913635 347.124542,288.071014 347.120087,311.228394 
	C347.117523,324.558380 346.946564,337.890625 347.138489,351.217712 
	C347.318573,363.723114 350.437195,368.296844 362.283356,372.254547 
	C403.403656,385.992554 444.598206,399.508850 485.780701,413.060242 
	C497.177612,416.810486 508.574646,417.029510 520.083984,413.153076 
	C537.559753,407.267151 555.141724,401.697205 572.653564,395.917419 
	C596.474670,388.055237 620.259460,380.083191 644.085876,372.237152 
	C654.350769,368.856873 658.900391,361.615814 658.909058,351.110870 
	C658.910522,349.278229 658.961914,347.445557 658.958130,345.612946 
	C658.891235,313.121063 658.819214,280.629181 658.749207,248.137299 
	C658.745117,246.226974 658.748718,244.316635 658.748718,242.450378 
	C673.954163,242.450378 688.359253,242.450378 703.130127,242.450378 
	C703.130127,315.359436 703.130127,387.943054 703.130127,460.763062 
	C718.235229,460.763062 732.969482,460.763062 748.284424,460.763062 
	C748.284424,387.183533 748.284424,313.823456 748.284424,239.961136 
	C763.102112,239.961136 777.346741,239.961136 791.809204,239.961136 
	C791.200073,226.659332 790.675903,213.868500 789.944275,201.089523 
	C789.861389,199.641678 788.611206,198.260666 787.257935,196.345337 
	C770.911316,196.275375 754.564758,196.205399 737.379761,195.912506 
M124.253342,568.499878 
	C124.253342,651.257385 124.253342,734.014832 124.253342,816.624451 
	C376.851105,816.624451 628.740723,816.624451 880.491821,816.624451 
	C880.491821,654.354248 880.491821,492.461304 880.491821,330.557983 
	C850.546936,330.557983 820.974426,330.557983 790.968994,330.557983 
	C790.968994,388.811584 790.968994,446.724670 790.968994,504.668121 
	C746.145569,504.668121 701.758484,504.668121 656.894165,504.668121 
	C656.894165,474.644958 656.894165,444.949188 656.894165,414.746765 
	C653.689392,415.947449 651.096619,417.020569 648.439514,417.899231 
	C605.530701,432.088165 562.620483,446.272736 519.693909,460.407867 
	C508.936462,463.950134 498.168152,463.970856 487.336548,460.407104 
	C430.987976,441.867493 374.609039,423.420074 318.256042,404.893921 
	C306.472137,401.019958 303.280853,396.573395 303.231964,383.933411 
	C303.170074,367.934814 303.285614,351.935516 303.323395,335.936523 
	C303.327576,334.171173 303.323944,332.405792 303.323944,330.635132 
	C243.267838,330.635132 183.898880,330.635132 124.253212,330.635132 
	C124.253212,409.869385 124.253212,488.684631 124.253342,568.499878 
z"/>
<path fill="#FCFDFF" opacity="1.000000" stroke="none" 
	d="
M124.253281,567.999878 
	C124.253212,488.684631 124.253212,409.869385 124.253212,330.635132 
	C183.898880,330.635132 243.267838,330.635132 303.323944,330.635132 
	C303.323944,332.405792 303.327576,334.171173 303.323395,335.936523 
	C303.285614,351.935516 303.170074,367.934814 303.231964,383.933411 
	C303.280853,396.573395 306.472137,401.019958 318.256042,404.893921 
	C374.609039,423.420074 430.987976,441.867493 487.336548,460.407104 
	C498.168152,463.970856 508.936462,463.950134 519.693909,460.407867 
	C562.620483,446.272736 605.530701,432.088165 648.439514,417.899231 
	C651.096619,417.020569 653.689392,415.947449 656.894165,414.746765 
	C656.894165,444.949188 656.894165,474.644958 656.894165,504.668121 
	C701.758484,504.668121 746.145569,504.668121 790.968994,504.668121 
	C790.968994,446.724670 790.968994,388.811584 790.968994,330.557983 
	C820.974426,330.557983 850.546936,330.557983 880.491821,330.557983 
	C880.491821,492.461304 880.491821,654.354248 880.491821,816.624451 
	C628.740723,816.624451 376.851105,816.624451 124.253342,816.624451 
	C124.253342,734.014832 124.253342,651.257385 124.253281,567.999878 
M476.071075,551.015869 
	C456.062988,551.065308 436.054901,551.114685 415.114532,551.011658 
	C363.482208,551.011658 311.849854,551.011658 260.287933,551.011658 
	C260.287933,565.869751 260.287933,579.980835 260.308716,594.636780 
	C260.443207,594.759460 260.577728,594.882202 260.559723,595.242065 
	C260.559723,595.242065 260.771393,595.428284 260.771393,595.428284 
	C260.771393,595.428284 260.986328,595.245789 261.813843,595.719910 
	C300.187836,595.703491 338.561829,595.687073 377.856689,595.897827 
	C425.185669,595.910706 472.514740,595.889587 519.843506,596.000854 
	C523.633789,596.009766 525.134460,595.132141 525.028442,590.978882 
	C524.735168,579.487305 524.983948,567.982605 524.836914,556.485474 
	C524.816711,554.909302 523.763794,553.346313 523.115601,551.812439 
	C523.115601,551.812439 523.154053,551.884216 522.636353,551.174805 
	C507.423706,551.169678 492.211090,551.164551 476.071075,551.015869 
M520.817627,685.924988 
	C524.196045,686.305725 524.489929,684.303101 524.486389,681.604187 
	C524.470825,669.779907 524.620605,657.955566 524.679504,646.131042 
	C524.688171,644.383484 524.531128,642.635132 524.433289,640.506958 
	C522.235229,640.506958 520.593140,640.506958 518.950989,640.506958 
	C435.011200,640.506958 351.071411,640.506836 267.131622,640.508118 
	C265.965912,640.508118 264.795288,640.459656 263.635437,640.546875 
	C260.592346,640.775818 258.742950,641.938965 258.938873,645.514404 
	C259.220886,650.661743 259.112823,655.830444 259.017853,661.917419 
	C259.017853,669.847900 259.017853,677.778381 259.017853,685.999695 
	C261.137177,685.999695 262.613068,685.999695 264.088959,685.999695 
	C348.072662,685.999634 432.056396,686.000488 516.040100,685.992004 
	C517.368713,685.991882 518.697266,685.878113 520.817627,685.924988 
M390.759827,504.900330 
	C391.064697,491.803467 391.404510,478.707123 391.595398,465.608582 
	C391.608093,464.737915 390.488739,463.850800 389.251923,462.463898 
	C388.426697,462.390350 387.601562,462.253510 386.776245,462.252289 
	C345.497406,462.192261 304.218597,462.141052 262.939758,462.109283 
	C261.829163,462.108429 260.718384,462.332031 259.458679,462.466919 
	C259.458679,476.978210 259.458679,491.184082 259.458679,505.891144 
	C268.568726,505.891144 277.349823,505.951477 286.129852,505.880493 
	C320.744385,505.600708 355.358551,505.279633 390.759827,504.900330 
M694.421143,555.913513 
	C679.323547,566.119141 670.385986,580.310608 668.438965,598.350952 
	C666.226440,618.851807 673.977173,635.774353 689.054810,649.452576 
	C684.191467,660.652405 679.443481,671.586548 674.521973,682.920349 
	C684.006592,686.967407 693.071594,690.835449 702.308228,694.776733 
	C706.746948,684.620483 711.010193,675.073975 715.068115,665.441101 
	C716.143860,662.887451 717.311035,662.148560 720.256104,662.464355 
	C725.008728,662.973999 729.998718,663.204468 734.640320,662.291382 
	C739.648682,661.306152 741.999634,662.401001 743.870117,667.270386 
	C747.419617,676.510681 751.743896,685.453308 755.864563,694.787231 
	C765.338074,690.671753 774.271179,686.791077 783.576599,682.748657 
	C778.724731,671.715393 774.143677,661.054138 769.321655,650.502991 
	C768.110596,647.853149 768.380188,646.295776 770.403931,644.062195 
	C784.949341,628.008423 789.639404,609.217712 783.736328,588.453247 
	C772.971497,550.587524 729.678284,534.694885 694.421143,555.913513 
z"/>
<path fill="#FCFDFE" opacity="1.000000" stroke="none" 
	d="
M787.902344,196.848663 
	C788.611206,198.260666 789.861389,199.641678 789.944275,201.089523 
	C790.675903,213.868500 791.200073,226.659332 791.809204,239.961136 
	C777.346741,239.961136 763.102112,239.961136 748.284424,239.961136 
	C748.284424,313.823456 748.284424,387.183533 748.284424,460.763062 
	C732.969482,460.763062 718.235229,460.763062 703.130127,460.763062 
	C703.130127,387.943054 703.130127,315.359436 703.130127,242.450378 
	C688.359253,242.450378 673.954163,242.450378 658.748718,242.450378 
	C658.748718,244.316635 658.745117,246.226974 658.749207,248.137299 
	C658.819214,280.629181 658.891235,313.121063 658.958130,345.612946 
	C658.961914,347.445557 658.910522,349.278229 658.909058,351.110870 
	C658.900391,361.615814 654.350769,368.856873 644.085876,372.237152 
	C620.259460,380.083191 596.474670,388.055237 572.653564,395.917419 
	C555.141724,401.697205 537.559753,407.267151 520.083984,413.153076 
	C508.574646,417.029510 497.177612,416.810486 485.780701,413.060242 
	C444.598206,399.508850 403.403656,385.992554 362.283356,372.254547 
	C350.437195,368.296844 347.318573,363.723114 347.138489,351.217712 
	C346.946564,337.890625 347.117523,324.558380 347.120087,311.228394 
	C347.124542,288.071014 347.121338,264.913635 347.121338,241.117920 
	C303.399658,241.117920 259.710052,241.117920 215.836487,241.117920 
	C215.836487,225.861298 215.836487,211.241898 215.836487,195.992722 
	C288.967163,195.992722 362.058289,195.992722 436.074310,196.001755 
	C494.828156,196.284607 552.656860,196.638748 610.486084,196.805557 
	C652.980347,196.928131 695.475342,196.805435 738.437378,196.876831 
	C755.237305,196.923981 771.569824,196.886322 787.902344,196.848663 
z"/>
<path fill="#283163" opacity="1.000000" stroke="none" 
	d="
M737.969971,196.792023 
	C695.475342,196.805435 652.980347,196.928131 610.486084,196.805557 
	C552.656860,196.638748 494.828156,196.284607 436.544861,195.938171 
	C438.028778,195.586411 439.966980,195.063889 441.905334,195.063034 
	C538.102966,195.021179 634.300598,195.017838 730.498230,195.059204 
	C732.792175,195.060181 735.085938,195.615662 737.746948,196.192032 
	C738.114136,196.471558 737.969971,196.792038 737.969971,196.792023 
z"/>
<path fill="#040507" opacity="1.000000" stroke="none" 
	d="
M738.437378,196.876831 
	C737.969971,196.792038 738.114136,196.471558 738.166138,196.303497 
	C754.564758,196.205399 770.911316,196.275375 787.580139,196.597000 
	C771.569824,196.886322 755.237305,196.923981 738.437378,196.876831 
z"/>
<path fill="#1E30A7" opacity="1.000000" stroke="none" 
	d="
M260.287933,594.091919 
	C260.287933,579.980835 260.287933,565.869751 260.287933,551.011658 
	C311.849854,551.011658 363.482208,551.011658 415.933319,551.291504 
	C417.732941,551.706360 418.713684,551.958557 419.694580,551.959229 
	C438.816132,551.971313 457.937683,551.954102 477.522095,551.947632 
	C493.041351,551.929626 508.097687,551.906921 523.154053,551.884155 
	C523.154053,551.884216 523.115601,551.812439 523.107788,552.276428 
	C523.081055,563.890137 523.061584,575.039856 523.043640,586.189575 
	C523.030945,594.030457 523.031799,594.038452 515.395325,594.042114 
	C469.296387,594.064148 423.197449,594.082275 376.619293,594.086609 
	C337.522705,594.078308 298.905304,594.085083 260.287933,594.091919 
z"/>
<path fill="#0336A5" opacity="1.000000" stroke="none" 
	d="
M694.714905,555.700562 
	C729.678284,534.694885 772.971497,550.587524 783.736328,588.453247 
	C789.639404,609.217712 784.949341,628.008423 770.403931,644.062195 
	C768.380188,646.295776 768.110596,647.853149 769.321655,650.502991 
	C774.143677,661.054138 778.724731,671.715393 783.576599,682.748657 
	C774.271179,686.791077 765.338074,690.671753 755.864563,694.787231 
	C751.743896,685.453308 747.419617,676.510681 743.870117,667.270386 
	C741.999634,662.401001 739.648682,661.306152 734.640320,662.291382 
	C729.998718,663.204468 725.008728,662.973999 720.256104,662.464355 
	C717.311035,662.148560 716.143860,662.887451 715.068115,665.441101 
	C711.010193,675.073975 706.746948,684.620483 702.308228,694.776733 
	C693.071594,690.835449 684.006592,686.967407 674.521973,682.920349 
	C679.443481,671.586548 684.191467,660.652405 689.054810,649.452576 
	C673.977173,635.774353 666.226440,618.851807 668.438965,598.350952 
	C670.385986,580.310608 679.323547,566.119141 694.714905,555.700562 
M734.260925,580.002625 
	C723.374573,577.830322 714.384521,581.009033 708.000183,590.107178 
	C702.217041,598.348389 702.026611,607.290039 706.884521,616.016479 
	C712.308960,625.760620 723.647400,630.439697 734.262451,627.812622 
	C744.937805,625.170532 752.659729,615.941895 753.096802,605.303040 
	C753.588684,593.330750 747.137268,584.375793 734.260925,580.002625 
z"/>
<path fill="#2435A7" opacity="1.000000" stroke="none" 
	d="
M389.972870,504.973907 
	C355.358551,505.279633 320.744385,505.600708 286.129852,505.880493 
	C277.349823,505.951477 268.568726,505.891144 259.458679,505.891144 
	C259.458679,491.184082 259.458679,476.978210 259.458679,462.466919 
	C260.718384,462.332031 261.829163,462.108429 262.939758,462.109283 
	C304.218597,462.141052 345.497406,462.192261 386.776245,462.252289 
	C387.601562,462.253510 388.426697,462.390350 389.596436,463.189728 
	C389.951569,477.601685 389.962219,491.287781 389.972870,504.973907 
z"/>
<path fill="#303A7A" opacity="1.000000" stroke="none" 
	d="
M259.171295,660.989990 
	C259.112823,655.830444 259.220886,650.661743 258.938873,645.514404 
	C258.742950,641.938965 260.592346,640.775818 263.635437,640.546875 
	C264.795288,640.459656 265.965912,640.508118 267.131622,640.508118 
	C351.071411,640.506836 435.011200,640.506958 518.950989,640.506958 
	C520.593140,640.506958 522.235229,640.506958 524.433289,640.506958 
	C524.531128,642.635132 524.688171,644.383484 524.679504,646.131042 
	C524.620605,657.955566 524.470825,669.779907 524.486389,681.604187 
	C524.489929,684.303101 524.196045,686.305725 520.430115,685.684937 
	C520.042603,685.444946 520.054138,685.072327 520.449707,685.021118 
	C521.546875,683.332703 522.821289,681.707520 522.855957,680.056335 
	C523.062134,670.229126 522.991577,660.395874 522.994446,650.564697 
	C522.996826,642.409851 522.608459,642.014954 514.599792,642.014954 
	C436.949860,642.014954 359.299896,641.998352 281.650024,642.063232 
	C275.676270,642.068237 269.705902,642.763855 263.728180,642.925049 
	C260.852844,643.002686 259.987000,644.333862 260.022186,646.966003 
	C260.084473,651.630249 259.983856,656.296631 259.756348,660.968384 
	C259.561279,660.974670 259.171295,660.989990 259.171295,660.989990 
z"/>
<path fill="#3B447D" opacity="1.000000" stroke="none" 
	d="
M377.098511,594.101685 
	C423.197449,594.082275 469.296387,594.064148 515.395325,594.042114 
	C523.031799,594.038452 523.030945,594.030457 523.043640,586.189575 
	C523.061584,575.039856 523.081055,563.890137 523.144470,552.258789 
	C523.763794,553.346313 524.816711,554.909302 524.836914,556.485474 
	C524.983948,567.982605 524.735168,579.487305 525.028442,590.978882 
	C525.134460,595.132141 523.633789,596.009766 519.843506,596.000854 
	C472.514740,595.889587 425.185669,595.910706 377.380005,595.519775 
	C376.968353,594.794983 377.033447,594.448364 377.098511,594.101685 
z"/>
<path fill="#323E92" opacity="1.000000" stroke="none" 
	d="
M259.094574,661.453735 
	C259.171295,660.989990 259.561279,660.974670 259.774933,661.440918 
	C259.991974,667.738708 260.240814,673.583862 259.918945,679.397461 
	C259.673798,683.825684 261.258331,685.200500 265.633209,685.086182 
	C275.956421,684.816467 286.291473,684.997253 296.621735,685.000488 
	C371.099213,685.023804 445.576660,685.048218 520.054138,685.072327 
	C520.054138,685.072327 520.042603,685.444946 520.034241,685.631165 
	C518.697266,685.878113 517.368713,685.991882 516.040100,685.992004 
	C432.056396,686.000488 348.072662,685.999634 264.088959,685.999695 
	C262.613068,685.999695 261.137177,685.999695 259.017853,685.999695 
	C259.017853,677.778381 259.017853,669.847900 259.094574,661.453735 
z"/>
<path fill="#131D5E" opacity="1.000000" stroke="none" 
	d="
M376.619293,594.086609 
	C377.033447,594.448364 376.968353,594.794983 376.919556,595.406189 
	C338.561829,595.687073 300.187836,595.703491 261.432800,595.385559 
	C261.051758,595.051208 260.712219,595.005005 260.712219,595.005005 
	C260.577728,594.882202 260.443207,594.759460 260.298340,594.364380 
	C298.905304,594.085083 337.522705,594.078308 376.619293,594.086609 
z"/>
<path fill="#343C70" opacity="1.000000" stroke="none" 
	d="
M390.366333,504.937134 
	C389.962219,491.287781 389.951569,477.601685 389.918427,463.443420 
	C390.488739,463.850800 391.608093,464.737915 391.595398,465.608582 
	C391.404510,478.707123 391.064697,491.803467 390.366333,504.937134 
z"/>
<path fill="#1E2C89" opacity="1.000000" stroke="none" 
	d="
M477.059235,551.942932 
	C457.937683,551.954102 438.816132,551.971313 419.694580,551.959229 
	C418.713684,551.958557 417.732941,551.706360 416.399475,551.367676 
	C436.054901,551.114685 456.062988,551.065308 476.547211,551.283752 
	C477.023346,551.551636 477.059235,551.942932 477.059235,551.942932 
z"/>
<path fill="#2C3467" opacity="1.000000" stroke="none" 
	d="
M477.522095,551.947632 
	C477.059235,551.942932 477.023346,551.551636 477.010895,551.355530 
	C492.211090,551.164551 507.423706,551.169678 522.895203,551.529480 
	C508.097687,551.906921 493.041351,551.929626 477.522095,551.947632 
z"/>
<path fill="#3B447D" opacity="1.000000" stroke="none" 
	d="
M260.635986,595.123535 
	C260.712219,595.005005 261.051758,595.051208 261.019043,595.148499 
	C260.986328,595.245789 260.771393,595.428284 260.771393,595.428284 
	C260.771393,595.428284 260.559723,595.242065 260.635986,595.123535 
z"/>
<path fill="#FAFAFE" opacity="1.000000" stroke="none" 
	d="
M734.648193,580.117676 
	C747.137268,584.375793 753.588684,593.330750 753.096802,605.303040 
	C752.659729,615.941895 744.937805,625.170532 734.262451,627.812622 
	C723.647400,630.439697 712.308960,625.760620 706.884521,616.016479 
	C702.026611,607.290039 702.217041,598.348389 708.000183,590.107178 
	C714.384521,581.009033 723.374573,577.830322 734.648193,580.117676 
z"/>
<path fill="#2D3EAD" opacity="1.000000" stroke="none" 
	d="
M520.449707,685.021118 
	C445.576660,685.048218 371.099213,685.023804 296.621735,685.000488 
	C286.291473,684.997253 275.956421,684.816467 265.633209,685.086182 
	C261.258331,685.200500 259.673798,683.825684 259.918945,679.397461 
	C260.240814,673.583862 259.991974,667.738708 259.969971,661.434631 
	C259.983856,656.296631 260.084473,651.630249 260.022186,646.966003 
	C259.987000,644.333862 260.852844,643.002686 263.728180,642.925049 
	C269.705902,642.763855 275.676270,642.068237 281.650024,642.063232 
	C359.299896,641.998352 436.949860,642.014954 514.599792,642.014954 
	C522.608459,642.014954 522.996826,642.409851 522.994446,650.564697 
	C522.991577,660.395874 523.062134,670.229126 522.855957,680.056335 
	C522.821289,681.707520 521.546875,683.332703 520.449707,685.021118 
z"/>
</svg>